<svg width="200" height="256" viewBox="0 0 200 256" fill="none" xmlns="http://www.w3.org/2000/svg">
<g clip-path="url(#clip0)">
<path d="M185.331 171.862C167.849 204.702 136.097 226.655 99.8312 226.655C44.6967 226.655 0 175.916 0 113.327C0.000764557 50.7383 44.6975 0 99.8312 0C169.703 0 217.966 79.6018 193.175 153.599" fill="#17DDC0"/>
<path d="M188.329 164.878C128.383 220.565 37.2003 172.443 37.2003 83.5225C37.2003 52.9693 48.6908 25.4666 67.0302 6.26709C28.0088 21.6721 0 63.7839 0 113.327C0 171.304 38.354 219.105 87.8277 225.836L83.4147 247.768C82.3336 253.124 84.654 255.532 88.9975 255.532H113.193C116.636 255.532 118.903 253.23 117.973 248.323L113.664 225.563C146.875 220.331 174.706 196.606 188.329 164.878Z" fill="#0DBAA1"/>
</g>
<defs>
<clipPath id="clip0">
<rect width="200" height="255.726" fill="white"/>
</clipPath>
</defs>
</svg>
